<svg width="24" height="4" viewBox="0 0 24 4" fill="none" xmlns="http://www.w3.org/2000/svg">
<g clip-path="url(#clip0_177_2)">
<path d="M0.00976135 2.03054C0.00436961 1.75476 0.223472 1.52669 0.499278 1.52236C1.74735 1.50275 3.04283 1.50117 4.50977 1.50098C4.5044 1.22589 4.73032 1 5.00546 1C5.27775 1 5.50426 1.21791 5.50957 1.49015L5.50977 1.5C11.0726 1.50077 14.136 1.52744 21.5731 2.44202C21.8472 2.47571 22.0443 2.72609 22.0098 3C21.9753 3.27379 21.7226 3.46795 21.4487 3.43427C14.0675 2.5266 11.0469 2.50073 5.50977 2.5L5.50957 2.50987C5.50426 2.78209 5.28205 3 5.00977 3L4.99912 3C4.72506 3 4.5044 2.77499 4.50977 2.50098C3.04416 2.50118 1.75706 2.50215 0.519252 2.52141C0.243274 2.52571 0.0151564 2.3065 0.00976135 2.03054Z" fill="#4D4D4D"/>
</g>
<defs>
<clipPath id="clip0_177_2">
<rect width="24" height="4" fill="white"/>
</clipPath>
</defs>
</svg>
