<svg width="11" height="11" viewBox="0 0 11 11" fill="none" xmlns="http://www.w3.org/2000/svg">
<path d="M5.5 0.5C8.26142 0.5 10.5 2.73858 10.5 5.5C10.5 8.26142 8.26142 10.5 5.5 10.5C2.73858 10.5 0.5 8.26142 0.5 5.5C0.5 2.73858 2.73858 0.5 5.5 0.5Z" fill="white" stroke="#4D4D4D"/>
<path d="M9.70001 3.90002C9.70001 4.45231 9.2523 4.90002 8.70001 4.90002C8.14773 4.90002 7.70001 4.45231 7.70001 3.90002C7.70001 3.34774 8.14773 2.90002 8.70001 2.90002C9.2523 2.90002 9.70001 3.34774 9.70001 3.90002Z" fill="#4D4D4D"/>
<path d="M9.70001 7.09998C9.70001 7.65226 9.2523 8.09998 8.70001 8.09998C8.14773 8.09998 7.70001 7.65226 7.70001 7.09998C7.70001 6.54769 8.14773 6.09998 8.70001 6.09998C9.2523 6.09998 9.70001 6.54769 9.70001 7.09998Z" fill="#4D4D4D"/>
</svg>
