<svg width="11" height="11" viewBox="0 0 11 11" fill="none" xmlns="http://www.w3.org/2000/svg">
<path d="M5.5 0.5C8.26142 0.5 10.5 2.73858 10.5 5.5C10.5 8.26142 8.26142 10.5 5.5 10.5C2.73858 10.5 0.5 8.26142 0.5 5.5C0.5 2.73858 2.73858 0.5 5.5 0.5Z" fill="#D5CCC2" stroke="#4D4D4D"/>
<rect x="5.90466" y="7.77588" width="2" height="1" rx="0.5" transform="rotate(-15 5.90466 7.77588)" fill="#ED6E38"/>
<path d="M7 7.20711C7 6.76165 7.53857 6.53857 7.85355 6.85355L8.64645 7.64645C8.84171 7.84171 8.84171 8.15829 8.64645 8.35355L7.85355 9.14645C7.53857 9.46143 7 9.23835 7 8.79289V7.20711Z" fill="#2690B7"/>
<rect x="6.16348" y="2.25824" width="2" height="1" rx="0.5" transform="rotate(15 6.16348 2.25824)" fill="#ED6E38"/>
<path d="M7 2.20711C7 1.76165 7.53857 1.53857 7.85355 1.85355L8.64645 2.64645C8.84171 2.84171 8.84171 3.15829 8.64645 3.35355L7.85355 4.14645C7.53857 4.46143 7 4.23835 7 3.79289V2.20711Z" fill="#2690B7"/>
<rect x="7" y="2.25" width="2" height="6.5" rx="1" fill="white"/>
<mask id="mask0_164_112" style="mask-type:alpha" maskUnits="userSpaceOnUse" x="7" y="2" width="2" height="7">
<path d="M7 3.25C7 2.69772 7.44772 2.25 8 2.25C8.55228 2.25 9 2.69772 9 3.25V7.75C9 8.30228 8.55228 8.75 8 8.75C7.44772 8.75 7 8.30228 7 7.75V3.25Z" fill="white"/>
</mask>
<g mask="url(#mask0_164_112)">
<path d="M9.70001 7.09998C9.70001 7.65226 9.2523 8.09998 8.70001 8.09998C8.14773 8.09998 7.70001 7.65226 7.70001 7.09998C7.70001 6.54769 8.14773 6.09998 8.70001 6.09998C9.2523 6.09998 9.70001 6.54769 9.70001 7.09998Z" fill="#4D4D4D"/>
<path d="M9.70001 3.90002C9.70001 4.45231 9.2523 4.90002 8.70001 4.90002C8.14773 4.90002 7.70001 4.45231 7.70001 3.90002C7.70001 3.34774 8.14773 2.90002 8.70001 2.90002C9.2523 2.90002 9.70001 3.34774 9.70001 3.90002Z" fill="#4D4D4D"/>
</g>
</svg>
