<svg width="9" height="3" viewBox="0 0 9 3" fill="none" xmlns="http://www.w3.org/2000/svg">
<g clip-path="url(#clip0_177_4)">
<g filter="url(#filter0_d_177_4)">
<path d="M0 1.5C0 2.32843 0.671573 3 1.5 3L7.5 3C8.32843 3 9 2.32843 9 1.5C9 0.671573 8.32843 0 7.5 0L1.5 0C0.671573 0 0 0.671573 0 1.5Z" fill="#363636"/>
<path d="M1.5 2.5L7.5 2.5C8.05228 2.5 8.5 2.05228 8.5 1.5C8.5 0.947715 8.05228 0.5 7.5 0.5L1.5 0.5C0.947715 0.5 0.5 0.947715 0.5 1.5C0.5 2.05228 0.947715 2.5 1.5 2.5Z" stroke="#4D4D4D"/>
</g>
</g>
<defs>
<filter id="filter0_d_177_4" x="-4" y="0" width="17" height="11" filterUnits="userSpaceOnUse" color-interpolation-filters="sRGB">
<feFlood flood-opacity="0" result="BackgroundImageFix"/>
<feColorMatrix in="SourceAlpha" type="matrix" values="0 0 0 0 0 0 0 0 0 0 0 0 0 0 0 0 0 0 127 0" result="hardAlpha"/>
<feOffset dy="4"/>
<feGaussianBlur stdDeviation="2"/>
<feComposite in2="hardAlpha" operator="out"/>
<feColorMatrix type="matrix" values="0 0 0 0 0 0 0 0 0 0 0 0 0 0 0 0 0 0 0.25 0"/>
<feBlend mode="normal" in2="BackgroundImageFix" result="effect1_dropShadow_177_4"/>
<feBlend mode="normal" in="SourceGraphic" in2="effect1_dropShadow_177_4" result="shape"/>
</filter>
<clipPath id="clip0_177_4">
<rect width="9" height="3" fill="white"/>
</clipPath>
</defs>
</svg>
