<svg width="11" height="11" viewBox="0 0 11 11" fill="none" xmlns="http://www.w3.org/2000/svg">
<path d="M5.5 0.5C8.26142 0.5 10.5 2.73858 10.5 5.5C10.5 8.26142 8.26142 10.5 5.5 10.5C2.73858 10.5 0.5 8.26142 0.5 5.5C0.5 2.73858 2.73858 0.5 5.5 0.5Z" fill="#83608E" stroke="#4D4D4D"/>
<path d="M5.20378 3.25C5.40212 3.25 5.46524 2.98262 5.28784 2.89392L5 2.75C4.7509 2.62545 4.83953 2.25 5.11803 2.25H5.61803C5.82899 2.25 6 2.07899 6 1.86803C6 1.58409 6.29882 1.39941 6.55279 1.52639L7.72361 2.1118C7.893 2.1965 8 2.36963 8 2.55902V8.44098C8 8.63037 7.893 8.8035 7.72361 8.8882L6.55279 9.47361C6.29882 9.60059 6 9.41591 6 9.13197C6 8.92101 5.82899 8.75 5.61803 8.75H5.11803C4.83953 8.75 4.7509 8.37455 5 8.25L5.28784 8.10608C5.46524 8.01738 5.40212 7.75 5.20378 7.75C5.03632 7.75 4.95246 7.54754 5.07087 7.42913L5.85355 6.64645C5.94732 6.55268 6 6.4255 6 6.29289V4.70711C6 4.5745 5.94732 4.44732 5.85355 4.35355L5.07087 3.57087C4.95246 3.45246 5.03632 3.25 5.20378 3.25Z" fill="#363636"/>
<rect x="7" y="2.25" width="2" height="6.5" rx="1" fill="white"/>
<mask id="mask0_164_85" style="mask-type:alpha" maskUnits="userSpaceOnUse" x="7" y="2" width="2" height="7">
<path d="M7 3.25C7 2.69772 7.44772 2.25 8 2.25C8.55228 2.25 9 2.69772 9 3.25V7.75C9 8.30228 8.55228 8.75 8 8.75C7.44772 8.75 7 8.30228 7 7.75V3.25Z" fill="white"/>
</mask>
<g mask="url(#mask0_164_85)">
<path d="M8.70001 6.34998C9.11423 6.34998 9.45001 6.68576 9.45001 7.09998C9.45001 7.51419 9.11423 7.84998 8.70001 7.84998C8.2858 7.84998 7.95001 7.51419 7.95001 7.09998C7.95001 6.68576 8.2858 6.34998 8.70001 6.34998Z" stroke="#CBDBFC" stroke-width="0.5"/>
<path d="M8.70001 3.15002C9.11423 3.15002 9.45001 3.48581 9.45001 3.90002C9.45001 4.31424 9.11423 4.65002 8.70001 4.65002C8.2858 4.65002 7.95001 4.31424 7.95001 3.90002C7.95001 3.48581 8.2858 3.15002 8.70001 3.15002Z" stroke="#CBDBFC" stroke-width="0.5"/>
</g>
</svg>
